<svg width="9" height="17" viewBox="0 0 9 17" fill="none" xmlns="http://www.w3.org/2000/svg">
<rect width="9" height="17" fill="#404040"/>
<g id="Educator flow">
<path d="M-3392 -1282C-3392 -1283.1 -3391.1 -1284 -3390 -1284H20349C20350.1 -1284 20351 -1283.1 20351 -1282V22601C20351 22602.1 20350.1 22603 20349 22603H-3390C-3391.1 22603 -3392 22602.1 -3392 22601V-1282Z" fill="#807E7E"/>
<path d="M-3390 -1283H20349V-1285H-3390V-1283ZM20350 -1282V22601H20352V-1282H20350ZM20349 22602H-3390V22604H20349V22602ZM-3391 22601V-1282H-3393V22601H-3391ZM-3390 22602C-3390.55 22602 -3391 22601.6 -3391 22601H-3393C-3393 22602.7 -3391.66 22604 -3390 22604V22602ZM20350 22601C20350 22601.6 20349.6 22602 20349 22602V22604C20350.7 22604 20352 22602.7 20352 22601H20350ZM20349 -1283C20349.6 -1283 20350 -1282.55 20350 -1282H20352C20352 -1283.66 20350.7 -1285 20349 -1285V-1283ZM-3390 -1285C-3391.66 -1285 -3393 -1283.66 -3393 -1282H-3391C-3391 -1282.55 -3390.55 -1283 -3390 -1283V-1285Z" fill="black" fill-opacity="0.1"/>
<g id="Doctor sign in">
<rect width="1536" height="864" transform="translate(-1275 -412)" fill="#C3E7E8" fill-opacity="0.8"/>
<g id="Group 625484">
<rect id="Rectangle 17266" x="-487" y="-226" width="544" height="317" rx="12" fill="white"/>
<g id="Frame 625491">
<g id="Group 18289">
<rect id="Rectangle 16875" x="-461" y="-18" width="493" height="53" rx="10" fill="#29BCC1"/>
<path id="Rectangle 16903" d="M-21.4189 -18H21.5811C27.1039 -18 31.5811 -13.5228 31.5811 -8V25C31.5811 30.5229 27.1039 35 21.5811 35H-21.4189V-18Z" fill="#078A8E"/>
<path id="Vector 1" d="M0.767578 15.2793L8.00729 8.49206C8.09158 8.41305 8.09158 8.27926 8.00729 8.20025L0.767578 1.41302" stroke="white" stroke-width="1.5" stroke-linecap="round"/>
</g>
</g>
</g>
</g>
</g>
</svg>
