<svg width="26" height="26" viewBox="0 0 26 26" fill="none" xmlns="http://www.w3.org/2000/svg">
<path d="M12.9994 24.534C19.3719 24.534 24.5379 19.368 24.5379 12.9955C24.5379 6.62298 19.3719 1.45703 12.9994 1.45703C6.62688 1.45703 1.46094 6.62298 1.46094 12.9955C1.46094 19.368 6.62688 24.534 12.9994 24.534Z" stroke="#313131"/>
<path d="M12.5628 12.7992V12.6515C12.5628 10.9069 12.5628 9.1626 12.5628 7.4186C12.5616 7.23266 12.6343 7.05385 12.7649 6.92151C12.8955 6.78917 13.0733 6.71413 13.2593 6.71291C13.4452 6.71168 13.624 6.78437 13.7564 6.91498C13.8887 7.04559 13.9637 7.22343 13.965 7.40937C13.965 8.32198 13.965 9.23429 13.965 10.1463V12.7992C14.0083 12.7586 14.0379 12.7337 14.0647 12.7069C14.457 12.3146 14.8465 11.9195 15.2425 11.5309C15.3085 11.4665 15.3866 11.4157 15.4722 11.3814C15.5578 11.3471 15.6494 11.3301 15.7416 11.3312C15.8338 11.3323 15.9249 11.3516 16.0097 11.3879C16.0945 11.4242 16.1713 11.4769 16.2357 11.5429C16.3002 11.6089 16.351 11.687 16.3852 11.7726C16.4195 11.8582 16.4366 11.9498 16.4354 12.042C16.4343 12.1342 16.4151 12.2253 16.3787 12.3101C16.3424 12.3949 16.2897 12.4717 16.2237 12.5361C15.74 13.0223 15.2551 13.5075 14.769 13.9918C14.4465 14.3143 14.1237 14.6368 13.8007 14.9592C13.7344 15.0366 13.6523 15.0987 13.5598 15.1413C13.4673 15.1839 13.3666 15.2059 13.2648 15.2059C13.163 15.2059 13.0623 15.1839 12.9698 15.1413C12.8773 15.0987 12.7952 15.0366 12.729 14.9592L10.3059 12.538C10.2092 12.4503 10.1394 12.3369 10.1047 12.211C10.0701 12.0852 10.072 11.952 10.1102 11.8272C10.1402 11.7057 10.2042 11.5953 10.2948 11.509C10.3854 11.4226 10.4988 11.364 10.6216 11.3398C10.7429 11.3095 10.8701 11.3127 10.9897 11.3489C11.1093 11.3851 11.2169 11.4532 11.301 11.5457C11.6874 11.9334 12.0745 12.3204 12.4622 12.7069C12.4899 12.7346 12.5185 12.7595 12.5637 12.7992" fill="#313131"/>
<path d="M13.2726 16.5205C14.9046 16.5205 16.5353 16.5205 18.1649 16.5205C18.2589 16.5167 18.3528 16.5319 18.4408 16.5652C18.5289 16.5985 18.6093 16.6492 18.6773 16.7143C18.7453 16.7794 18.7995 16.8575 18.8367 16.944C18.8738 17.0305 18.8931 17.1236 18.8935 17.2177C18.8939 17.3119 18.8753 17.4051 18.8388 17.4919C18.8024 17.5787 18.7488 17.6572 18.6813 17.7229C18.6138 17.7885 18.5338 17.8398 18.446 17.8738C18.3582 17.9078 18.2645 17.9238 18.1704 17.9208C17.7181 17.9208 17.2649 17.9208 16.8126 17.9208H8.3821C8.19628 17.9243 8.01667 17.8539 7.88277 17.725C7.74887 17.5961 7.67165 17.4193 7.6681 17.2335C7.66455 17.0477 7.73496 16.8681 7.86384 16.7342C7.99272 16.6003 8.16951 16.5231 8.35533 16.5195C8.93594 16.5195 9.51656 16.5195 10.0963 16.5195H13.2726" fill="#313131"/>
</svg>
