<svg width="190" height="40" viewBox="0 0 190 40" fill="none" xmlns="http://www.w3.org/2000/svg">
<g id="Logo">
<path id="Vector" d="M11.3717 3.24277C8.77096 0.60918 4.55379 0.60918 1.95304 3.24277C-0.651012 5.87304 -0.651012 10.1414 1.95304 12.7717L6.66073 17.5361L11.3717 12.7717C13.9725 10.1414 13.9725 5.87637 11.3717 3.24277Z" fill="#FBDB00"/>
<path id="Vector_2" d="M20.82 3.24418C18.2192 0.613918 14.002 0.613918 11.4013 3.24418C8.79723 5.87445 8.79723 10.1428 11.4013 12.7731L16.109 17.5375L20.82 12.7731C23.4207 10.1428 23.4207 5.87778 20.82 3.24418Z" fill="#7CC14B"/>
<path id="Vector_3" d="M16.1095 8.03129C13.5087 5.40103 9.29156 5.40103 6.6908 8.03129C4.09005 10.6616 4.09005 14.9266 6.6908 17.5568L11.4018 22.3213L16.1128 17.5568C18.7135 14.9266 18.7135 10.6616 16.1128 8.03129" fill="#19B3B5"/>
<path id="Vector_4" d="M178.828 38.9919C178.828 39.5146 178.406 39.9374 177.889 39.9374C177.373 39.9374 176.951 39.5146 176.951 38.9919C176.951 38.4691 177.373 38.043 177.889 38.043C178.406 38.043 178.828 38.4658 178.828 38.9919Z" fill="#19B3B5"/>
<path id="Vector_5" d="M180.865 38.9919C180.865 39.5146 180.447 39.9374 179.927 39.9374C179.406 39.9374 178.988 39.5146 178.988 38.9919C178.988 38.4691 179.41 38.043 179.927 38.043C180.443 38.043 180.865 38.4658 180.865 38.9919Z" fill="#19B3B5"/>
<path id="Vector_6" d="M161.248 32.2202C161.228 31.8506 161.163 31.4977 161.06 31.1648C161.054 31.1415 161.047 31.1182 161.041 31.0949C161.031 31.0616 161.021 31.0283 161.008 30.9983C160.925 30.7686 160.83 30.5488 160.712 30.3357C160.346 29.6865 159.839 29.1804 159.187 28.8175C158.535 28.4546 157.795 28.2715 156.968 28.2715C156.962 28.2715 156.955 28.2715 156.949 28.2715C156.942 28.2715 156.935 28.2715 156.932 28.2715C156.106 28.2715 155.365 28.4546 154.713 28.8175C154.061 29.1804 153.551 29.6865 153.189 30.3357C153.071 30.5488 152.975 30.7686 152.893 30.9983C152.88 31.0316 152.87 31.0649 152.857 31.0949C152.847 31.1182 152.843 31.1415 152.837 31.1648C152.738 31.4977 152.672 31.8506 152.652 32.2202C152.646 32.3201 152.643 32.42 152.643 32.5199V34.9504C152.643 35.2433 152.728 35.4764 152.896 35.6495C153.064 35.8193 153.301 35.9059 153.607 35.9059H160.29C160.596 35.9059 160.833 35.8193 161.001 35.6495C161.172 35.4764 161.255 35.2467 161.255 34.9504V32.5199C161.255 32.4166 161.251 32.3201 161.245 32.2202M159.678 34.0148H154.21V32.7995C154.21 31.9838 154.437 31.3612 154.898 30.9217C154.901 30.9184 154.904 30.9117 154.911 30.9084L154.917 30.9017C154.94 30.8784 154.964 30.8618 154.99 30.8418C155.454 30.4456 156.103 30.2425 156.939 30.2425H156.952C157.788 30.2425 158.437 30.4423 158.901 30.8418C158.924 30.8618 158.95 30.8784 158.973 30.9017L158.98 30.9084C158.983 30.9117 158.986 30.9184 158.99 30.9217C159.447 31.3612 159.678 31.9871 159.678 32.7995V34.0148Z" fill="#19B3B5"/>
<path id="Vector_7" d="M173.955 32.7656C173.952 34.0974 173.955 35.4259 173.955 36.7576C173.955 36.8076 173.955 36.8575 173.955 36.9075V32.7656H173.952H173.955Z" fill="#19B3B5"/>
<path id="Vector_8" d="M174.015 37.2511C173.975 37.1479 173.962 37.0281 173.959 36.9082V37.1679C173.959 37.6007 173.86 37.927 173.666 38.1401C173.471 38.3532 173.205 38.4597 172.866 38.4597C172.675 38.4597 172.497 38.4231 172.332 38.3465C172.164 38.2733 171.997 38.1601 171.825 38.0103C171.704 37.8904 171.588 37.8072 171.483 37.7539C171.378 37.6973 171.262 37.6706 171.131 37.6706C170.917 37.6706 170.729 37.7439 170.565 37.897C170.403 38.0469 170.324 38.2433 170.324 38.4864C170.324 38.786 170.479 39.069 170.782 39.3254C171.022 39.5185 171.328 39.6783 171.704 39.8082C172.079 39.938 172.448 40.0013 172.803 40.0013C173.768 40.0013 174.508 39.7349 175.025 39.2055C175.289 38.9358 175.48 38.6129 175.608 38.2267C175.121 38.24 174.614 38.1235 174.357 37.8771C174.192 37.7173 174.094 37.4709 174.008 37.2478" fill="#19B3B5"/>
<path id="Vector_9" d="M175.805 32.0395C175.805 31.9097 175.789 31.7931 175.759 31.6932C175.67 31.4402 175.486 31.2671 175.213 31.1838C174.531 30.9674 173.962 31.3869 173.955 32.1294C173.955 32.3425 173.955 32.5556 173.955 32.7653H173.958V36.9038C173.962 37.0237 173.975 37.1435 174.014 37.2501C174.1 37.4732 174.199 37.7162 174.363 37.876C174.617 38.1224 175.124 38.2389 175.614 38.2256C175.739 37.8461 175.805 37.4099 175.805 36.9138V32.0362V32.0395Z" fill="#19B3B5"/>
<path id="Vector_10" d="M170.9 32.0459C170.567 31.8195 170.156 31.6364 169.665 31.4899L168.243 31.0737C167.733 30.9272 167.367 30.774 167.15 30.6175C166.93 30.4577 166.824 30.218 166.824 29.8851C166.824 29.5887 166.936 29.359 167.167 29.1925C167.384 29.0361 167.697 28.9528 168.105 28.9462C168.125 28.9462 168.144 28.9428 168.164 28.9428C168.474 28.9428 168.786 28.9894 169.102 29.0827C169.415 29.1759 169.777 29.3324 170.189 29.5554C170.38 29.6653 170.59 29.7186 170.818 29.7186C171.064 29.7186 171.272 29.6287 171.443 29.4422C171.611 29.2591 171.693 29.0361 171.693 28.7797C171.693 28.7697 171.693 28.7597 171.69 28.7497C171.677 28.3202 171.38 27.9873 170.791 27.7409C170.409 27.5644 169.975 27.4346 169.491 27.3447C169.448 27.3347 169.402 27.3314 169.356 27.3247C168.921 27.2548 168.507 27.2148 168.108 27.2148C167.117 27.2148 166.294 27.4512 165.639 27.9207C165.442 28.0639 165.28 28.227 165.142 28.4101C164.823 28.833 164.661 29.3657 164.661 30.0083C164.661 31.3733 165.504 32.3089 167.193 32.8183L168.286 33.1213C168.869 33.2878 169.27 33.4542 169.488 33.6207C169.705 33.7872 169.817 34.0136 169.817 34.2999C169.817 34.3565 169.813 34.4065 169.807 34.4531C169.774 34.7394 169.659 34.9558 169.455 35.109C169.214 35.2854 168.859 35.3787 168.395 35.3787C167.897 35.3787 167.371 35.2488 166.818 34.9858C166.617 34.8926 166.416 34.786 166.209 34.6595C166.13 34.6129 166.064 34.5729 166.001 34.5363C165.932 34.483 165.866 34.4264 165.804 34.3698C165.54 34.1235 165.284 33.7838 165.023 33.3477C164.931 33.1812 164.842 33.0547 164.754 32.9715C164.665 32.8849 164.566 32.8216 164.457 32.775C164.194 32.6685 163.94 32.6652 163.693 32.7617C163.45 32.8583 163.272 33.0414 163.167 33.3077C163.045 33.614 163.088 33.9803 163.305 34.4065C163.565 34.8826 163.94 35.3187 164.421 35.7183C164.559 35.8348 164.704 35.938 164.852 36.0412C164.935 36.1211 165.033 36.191 165.152 36.2476C165.234 36.2943 165.323 36.3375 165.409 36.3808C165.626 36.4973 165.85 36.6072 166.087 36.7038C166.982 37.07 167.865 37.2065 168.74 37.1166C169.254 37.06 169.738 36.9302 170.189 36.7238C170.199 36.7171 170.209 36.7138 170.222 36.7104C170.235 36.7038 170.248 36.6971 170.261 36.6938C170.264 36.6938 170.268 36.6905 170.271 36.6905C170.508 36.5839 170.719 36.4541 170.91 36.3109C171.15 36.1244 171.354 35.9114 171.515 35.6617C171.815 35.2055 171.966 34.6728 171.966 34.0669C171.966 33.2012 171.611 32.5286 170.903 32.0459" fill="#19B3B5"/>
<path id="Vector_11" d="M186.495 37.5232C185.817 37.5232 185.211 37.3834 184.678 37.1037C184.145 36.824 183.727 36.4245 183.427 35.9118C183.124 35.399 182.973 34.8064 182.973 34.1372C182.973 33.4679 183.121 32.852 183.414 32.3326C183.707 31.8132 184.118 31.4137 184.648 31.1273C185.175 30.8443 185.787 30.7012 186.482 30.7012C187.177 30.7012 187.763 30.8443 188.296 31.1273C188.829 31.4137 189.247 31.8132 189.547 32.3326C189.85 32.852 190.001 33.4513 190.001 34.1372C190.001 34.823 189.85 35.3957 189.547 35.9118C189.247 36.4245 188.833 36.824 188.303 37.1037C187.773 37.3834 187.17 37.5232 186.495 37.5232ZM186.469 36.005C186.982 36.005 187.404 35.8319 187.74 35.4856C188.075 35.1393 188.24 34.6865 188.24 34.1238C188.24 33.5612 188.079 33.095 187.756 32.7455C187.433 32.3959 187.022 32.2194 186.515 32.2194C186.008 32.2194 185.567 32.3925 185.231 32.7388C184.895 33.0851 184.731 33.5445 184.731 34.1139C184.731 34.6832 184.892 35.1293 185.221 35.4789C185.547 35.8285 185.965 36.005 186.466 36.005" fill="#19B3B5"/>
<path id="Vector_12" d="M146.479 34.0385C146.479 34.0385 146.45 34.0352 146.437 34.0352V35.8963C146.529 35.903 146.627 35.9063 146.726 35.9063H153.834V34.0385H146.476H146.479Z" fill="#19B3B5"/>
<path id="Vector_13" d="M178.972 34.0469C178.972 34.0469 178.943 34.0469 178.93 34.0469V35.908C179.022 35.9147 179.121 35.918 179.223 35.918H183.809V34.0469H178.972Z" fill="#19B3B5"/>
<path id="Vector_14" d="M180.313 31.3416C180.158 31.1918 179.967 31.1152 179.737 31.1152C179.506 31.1152 179.312 31.1885 179.154 31.3416C178.996 31.4915 178.917 31.7012 178.917 31.9676V34.0485H174.403V35.9196H179.634C179.934 35.9196 180.158 35.8397 180.313 35.6832C180.464 35.5234 180.54 35.3004 180.54 35.0074V31.9709C180.54 31.7012 180.464 31.4948 180.313 31.345" fill="#19B3B5"/>
<path id="Vector_15" d="M128.604 32.8528C128.604 32.4965 128.666 32.1236 128.794 31.7441C128.923 31.3645 129.081 31.0515 129.272 30.8085C129.525 30.4989 129.805 30.3457 130.105 30.3457C130.342 30.3457 130.536 30.4289 130.687 30.5921C130.836 30.7552 130.911 30.945 130.911 31.1614C130.911 31.2946 130.882 31.4145 130.829 31.5177C130.773 31.6242 130.691 31.7374 130.575 31.8606C130.427 32.0371 130.315 32.2102 130.24 32.3733C130.167 32.5398 130.128 32.7229 130.128 32.9127C130.128 33.259 130.236 33.5253 130.444 33.7218C130.654 33.9182 130.974 34.0181 131.405 34.0181H139.286V31.9372C139.286 31.6708 139.365 31.4611 139.523 31.3112C139.681 31.1614 139.872 31.0848 140.106 31.0848C140.34 31.0848 140.527 31.1581 140.682 31.3112C140.837 31.4611 140.913 31.6708 140.913 31.9372V34.9703C140.913 35.2633 140.834 35.4897 140.682 35.6495C140.531 35.8093 140.304 35.8892 140.007 35.8892H131.655C130.671 35.8892 129.917 35.6262 129.394 35.1068C128.867 34.5841 128.607 33.8316 128.607 32.8528" fill="#19B3B5"/>
<path id="Vector_16" d="M150.19 30.2378C149.927 29.6818 149.538 29.249 149.031 28.9427C148.524 28.633 147.918 28.4766 147.217 28.4766H145.528C146.23 28.4766 146.835 28.633 147.342 28.9427C147.849 29.249 148.238 29.6852 148.501 30.2378C148.659 30.5708 148.768 30.9404 148.834 31.3366C148.932 31.5829 148.988 31.8593 148.988 32.1756C148.988 32.4919 148.942 32.7582 148.847 32.998C148.738 33.7904 148.465 34.4329 148.02 34.919C147.434 35.5616 146.602 35.8846 145.528 35.8846H147.217C148.294 35.8846 149.123 35.5616 149.709 34.919C150.295 34.2765 150.588 33.3642 150.588 32.1856C150.588 31.4431 150.453 30.7905 150.19 30.2345" fill="#19B3B5"/>
<path id="Vector_17" d="M148.846 32.9994C148.773 33.1892 148.668 33.3623 148.536 33.5088C148.234 33.8484 147.766 34.0182 147.127 34.0182H138.015C137.495 34.0182 137.116 34.1514 136.886 34.4178C136.655 34.6841 136.54 35.0803 136.54 35.5964C136.54 35.6963 136.547 35.7928 136.553 35.8827H145.524C146.601 35.8827 147.43 35.5598 148.016 34.9172C148.461 34.4311 148.737 33.7885 148.846 32.9961" fill="#19B3B5"/>
<path id="Vector_18" d="M148.531 30.8585C148.659 30.9983 148.761 31.1615 148.834 31.3379C148.771 30.9384 148.659 30.5722 148.501 30.2359C148.238 29.6799 147.849 29.247 147.342 28.9374C146.835 28.6278 146.23 28.4746 145.528 28.4746H142.694C142.411 28.4746 142.197 28.5578 142.055 28.7243C141.91 28.8908 141.838 29.1205 141.838 29.4135C141.838 29.7065 141.91 29.9362 142.055 30.1027C142.2 30.2692 142.411 30.3557 142.694 30.3557H147.132C147.76 30.3557 148.225 30.5222 148.531 30.8552" fill="#19B3B5"/>
<path id="Vector_19" d="M135.493 29.4255C135.493 29.9515 135.075 30.3743 134.555 30.3743C134.035 30.3743 133.62 29.9515 133.62 29.4255C133.62 28.8994 134.038 28.4766 134.555 28.4766C135.072 28.4766 135.493 28.9027 135.493 29.4255Z" fill="#19B3B5"/>
<path id="Vector_20" d="M137.531 29.4255C137.531 29.9515 137.113 30.3743 136.593 30.3743C136.073 30.3743 135.658 29.9515 135.658 29.4255C135.658 28.8994 136.076 28.4766 136.593 28.4766C137.11 28.4766 137.531 28.9027 137.531 29.4255Z" fill="#19B3B5"/>
<path id="Vector_21" d="M37.4184 7.54786C37.2966 9.18928 37.1715 10.834 37.0529 12.4788C36.8686 15.0524 36.7007 17.6261 36.5065 20.2031C36.411 21.5216 35.6406 22.2807 34.4291 22.2873C33.0794 22.2973 32.2728 21.5315 32.342 20.1532C32.4407 18.1488 32.6284 16.1478 32.7765 14.1468C32.8917 12.6286 33.0037 11.1104 33.1189 9.59215C33.2341 8.10055 33.3526 6.60896 33.4744 5.04412C33.1485 5.01748 32.8522 5.00084 32.5592 4.97087C31.8086 4.89096 31.2819 4.42151 31.1436 3.72233C30.9757 2.88331 31.2128 2.19078 31.8975 1.85118C32.3782 1.61146 32.9148 1.46163 33.4415 1.36508C33.9551 1.27518 34.4851 1.27518 35.0086 1.28184C38.5838 1.32512 40.0356 2.24072 41.2701 5.69669C42.3368 8.67988 43.5318 11.6098 44.7334 14.7295C44.875 14.3866 44.9704 14.1801 45.0494 13.9737C46.3498 10.5377 47.637 7.09839 48.9539 3.66573C49.6847 1.76128 51.1431 0.982191 53.1282 1.38505C54.5373 1.67139 55.3735 2.57367 55.5084 4.06859C55.7883 7.18828 56.0319 10.3113 56.2887 13.4343C56.45 15.412 56.5948 17.393 56.7726 19.3707C56.9076 20.8923 56.3775 21.8878 55.2187 22.2074C53.7472 22.6136 52.5258 21.8911 52.3381 20.3762C52.1406 18.7581 52.0814 17.1234 51.9727 15.4953C51.7917 12.8384 51.6238 10.1781 51.3242 7.4846C51.2386 7.69103 51.1464 7.90079 51.0674 8.11054C49.7604 11.6165 48.4699 15.1257 47.1465 18.6249C46.5309 20.2564 44.9704 20.9622 43.4462 20.3596C42.5672 20.0133 42.0767 19.3208 41.7508 18.4618C40.4504 15.0491 39.1335 11.6431 37.82 8.23373C37.7311 7.99734 37.6258 7.76428 37.527 7.52789C37.4908 7.53455 37.4546 7.54121 37.4151 7.54786" fill="#545554"/>
<path id="Vector_22" d="M119.646 2.55338C120.347 2.89964 120.976 3.35245 121.134 4.19813C121.43 5.80625 120.044 6.97489 118.47 6.42886C117.917 6.23575 117.4 5.93277 116.864 5.68972C115.484 5.06045 114.059 4.73417 112.538 5.05046C111.527 5.26022 110.925 5.83622 110.813 6.69854C110.694 7.61747 111.086 8.42985 112.047 8.80941C113.321 9.31216 114.651 9.66508 115.955 10.0946C116.781 10.3676 117.624 10.614 118.424 10.9569C120.439 11.8192 121.683 13.3075 121.759 15.5882C121.838 17.9321 120.933 19.8166 118.905 21.0252C116.696 22.3403 114.279 22.4835 111.807 22.0873C110.204 21.8342 108.653 21.3481 107.271 20.4858C106.77 20.1728 106.326 19.6368 106.066 19.0974C105.717 18.3683 105.947 17.6158 106.533 17.0431C107.122 16.4638 107.843 16.344 108.594 16.6503C109.075 16.8467 109.519 17.1397 109.98 17.3927C111.557 18.2684 113.216 18.8777 115.043 18.5447C115.613 18.4415 116.242 18.1785 116.656 17.7856C117.634 16.8467 117.335 15.2186 116.054 14.6526C114.865 14.1232 113.578 13.8302 112.35 13.3907C111.264 13.0012 110.141 12.6649 109.141 12.1122C106.971 10.917 105.983 8.99586 106.24 6.5021C106.494 4.03165 107.942 2.47347 110.224 1.77762C111.458 1.40139 114.299 0.445836 119.655 2.55005" fill="#545554"/>
<path id="Vector_23" d="M142.898 3.57974C142.615 3.57974 142.42 3.58973 142.226 3.57974C141.393 3.53313 140.873 3.09031 140.702 2.2979C140.541 1.54878 140.84 0.763028 141.538 0.460048C143.043 -0.195853 144.563 -0.172547 145.999 0.673133C146.753 1.11595 147.059 1.89171 147.069 2.75404C147.095 4.54195 147.089 6.32987 147.095 8.11778V8.82695C147.684 8.31755 148.158 7.83478 148.702 7.44856C150.39 6.24996 152.27 5.95031 154.249 6.45972C156.29 6.98577 157.607 8.6172 157.673 10.778C157.742 13.1153 157.706 15.4592 157.712 17.7965V18.6621C158.018 18.6621 158.268 18.6721 158.522 18.6621C159.2 18.6289 159.717 18.8819 160.01 19.5178C160.287 20.1271 160.129 20.9295 159.658 21.4256C158.499 22.6475 155.059 22.4377 154.094 21.0527C153.844 20.6931 153.719 20.217 153.62 19.7775C153.538 19.4179 153.561 19.0317 153.561 18.6555C153.554 16.781 153.564 14.9032 153.557 13.0254C153.544 10.5583 152.083 9.39296 149.742 10.1121C148.893 10.3718 148.129 10.9511 147.375 11.4572C147.187 11.5804 147.108 11.9899 147.108 12.2663C147.089 14.8932 147.112 17.5201 147.089 20.1471C147.075 21.7485 145.742 22.6641 144.244 22.1448C143.576 21.915 143.131 21.4522 142.993 20.7464C142.927 20.4034 142.904 20.0439 142.904 19.6943C142.898 14.6169 142.901 9.53946 142.901 4.46205V3.58307L142.898 3.57974Z" fill="#545554"/>
<path id="Vector_24" d="M176.023 18.6629H176.875C177.56 18.6629 178.041 19.0025 178.321 19.6151C178.587 20.2144 178.426 20.9935 177.925 21.4363C177.685 21.6494 177.395 21.8492 177.093 21.9458C175.825 22.3586 174.528 22.3653 173.336 21.766C172.77 21.483 172.352 20.9036 171.802 20.4009C171.812 20.3909 171.68 20.4908 171.552 20.5907C169.382 22.2521 166.983 22.7248 164.392 21.8692C162.578 21.2699 161.541 19.7983 161.445 17.9038C161.353 15.996 162.202 14.5843 163.98 13.7453C165.784 12.8863 167.697 12.8697 169.623 13.0728C170.34 13.146 171.042 13.2925 171.875 13.4257C171.835 12.6932 171.878 11.984 171.74 11.3115C171.529 10.266 170.643 9.55354 169.386 9.61347C168.276 9.67007 167.173 9.99303 166.084 10.2694C165.564 10.4059 165.093 10.7189 164.589 10.9319C163.628 11.3415 162.739 11.0784 162.318 10.276C161.844 9.37042 162.035 8.21843 162.937 7.79226C164.109 7.23625 165.356 6.79343 166.617 6.49711C168.329 6.09758 170.084 6.10423 171.812 6.5071C174.439 7.12305 175.944 8.96423 176 11.691C176.042 13.7453 176.013 15.7963 176.016 17.8505V18.6629M168.833 15.5632C168.155 15.6431 167.562 15.6664 166.996 15.7929C165.969 16.026 165.488 16.6253 165.518 17.5076C165.55 18.3666 166.13 18.9359 167.137 19.1024C168.362 19.3055 169.521 19.0624 170.627 18.5431C171.884 17.9537 171.878 17.9304 171.852 16.5154C171.845 16.1592 171.733 15.9894 171.394 15.9428C170.515 15.8196 169.636 15.6831 168.833 15.5665" fill="#545554"/>
<path id="Vector_25" d="M63.9559 15.5025C64.081 17.1239 65.1345 18.3059 66.7904 18.6755C68.4299 19.0417 69.9936 18.8652 71.4422 17.933C71.88 17.65 72.3442 17.3836 72.8314 17.2105C73.5392 16.9541 74.3063 17.2271 74.7046 17.7832C75.1293 18.3825 75.1359 19.1982 74.675 19.8208C74.4841 20.0838 74.2503 20.3368 73.9804 20.5067C70.6883 22.5776 67.2184 22.9371 63.7025 21.2624C60.7659 19.8607 59.2845 16.5779 59.7914 13.0853C60.6869 6.86923 67.8472 3.93931 72.7491 7.8048C74.5828 9.24978 75.3598 11.2341 75.284 13.5548C75.2445 14.7334 74.3491 15.4759 72.9862 15.4925C71.1986 15.5158 69.4077 15.4992 67.62 15.4992H63.9625M63.9395 12.7124H71.0669C71.0307 10.7314 69.783 9.55609 67.8406 9.51947C65.6283 9.48284 64.0481 10.808 63.9395 12.7124Z" fill="#545554"/>
<path id="Vector_26" d="M180.342 9.69544C179.845 9.69544 179.453 9.71209 179.061 9.69544C178.159 9.65549 177.544 8.99293 177.524 8.05402C177.504 7.14175 178.126 6.43924 179.032 6.3893C179.483 6.36266 179.937 6.38597 180.464 6.38597C180.464 5.49368 180.457 4.66131 180.464 3.82895C180.474 2.54379 181.247 1.75138 182.492 1.74805C183.697 1.74805 184.454 2.51049 184.49 3.79233C184.513 4.60804 184.51 5.42376 184.52 6.23947C184.52 6.25612 184.536 6.2761 184.585 6.37931C185.672 6.37931 186.798 6.356 187.924 6.38597C189.198 6.4126 189.915 7.60788 189.385 8.77318C189.099 9.39579 188.599 9.69544 187.924 9.69877C186.814 9.7021 185.705 9.69877 184.553 9.69877C184.533 9.91186 184.497 10.0783 184.493 10.2481C184.49 12.4988 184.483 14.7495 184.493 16.9969C184.5 18.3786 185.148 18.9247 186.498 18.655C186.92 18.5718 187.331 18.402 187.739 18.2555C188.585 17.9591 189.313 18.1489 189.715 18.7748C190.172 19.4874 190.063 20.4862 189.425 21.0755C189.171 21.3086 188.865 21.5083 188.546 21.6348C186.949 22.2708 185.3 22.4705 183.611 22.071C181.576 21.5916 180.391 20.06 180.349 17.7694C180.306 15.3422 180.335 12.915 180.332 10.4879V9.69211" fill="#545554"/>
<path id="Vector_27" d="M78.9422 9.92146H78.3134C77.4542 9.91147 76.9274 9.52526 76.7101 8.74284C76.4863 7.92712 76.7562 7.13804 77.5002 6.7718C78.7644 6.15253 80.0747 6.12589 81.3388 6.76847C82.0697 7.14137 82.445 7.81059 82.5075 8.63963C82.5404 9.02917 82.547 9.41872 82.5734 9.97141C82.9585 9.39874 83.2417 8.94593 83.561 8.52309C84.3511 7.47432 85.2169 6.51877 86.6226 6.33898C87.6333 6.21246 88.3576 6.56205 88.6868 7.34447C89.0456 8.19681 88.802 9.20563 88.0547 9.78163C87.7452 10.0213 87.3897 10.2011 87.0341 10.3576C85.9971 10.8138 84.9601 11.2832 83.8968 11.6728C83.3207 11.8858 83.1166 12.1722 83.1264 12.8081C83.1692 15.2153 83.1593 17.6191 83.1396 20.023C83.1231 21.7343 81.8425 22.6699 80.2656 22.1505C79.3998 21.8675 78.9521 21.195 78.9488 20.0996C78.9389 16.9666 78.9455 13.8336 78.9455 10.7006V9.92146H78.9422Z" fill="#545554"/>
<path id="Vector_28" d="M92.1594 9.92508C91.8171 9.9051 91.5372 9.89512 91.2574 9.87514C90.5233 9.81521 90.0393 9.43898 89.8583 8.78641C89.6608 8.07058 89.8747 7.36807 90.4278 6.94855C91.5636 6.0829 94.4145 6.1395 95.4351 7.12502C95.8038 7.4846 96.0244 8.03396 96.2186 8.53004C96.3503 8.86299 96.3503 9.26585 96.3503 9.63875C96.3602 13.098 96.3668 16.564 96.3503 20.0266C96.3404 21.6914 95.0598 22.6402 93.529 22.1541C92.6368 21.8711 92.166 21.2086 92.1627 20.1398C92.1496 17.7393 92.1562 15.3321 92.1562 12.9282V9.92175" fill="#545554"/>
<path id="Vector_29" d="M128.54 15.5025C128.665 17.1239 129.719 18.3059 131.378 18.6755C133.018 19.0417 134.578 18.8652 136.027 17.933C136.464 17.65 136.929 17.3836 137.416 17.2105C138.124 16.9541 138.894 17.2271 139.289 17.7832C139.714 18.3825 139.72 19.1982 139.259 19.8208C139.068 20.0838 138.831 20.3368 138.561 20.5067C135.269 22.5776 131.803 22.9371 128.284 21.2624C125.347 19.8607 123.869 16.5779 124.373 13.0853C125.268 6.86923 132.428 3.93931 137.33 7.8048C139.167 9.24978 139.941 11.2341 139.865 13.5548C139.829 14.7334 138.93 15.4759 137.567 15.4925C135.78 15.5158 133.989 15.4992 132.201 15.4992H128.54M128.517 12.7124H135.645C135.608 10.7314 134.361 9.55609 132.418 9.51947C130.203 9.48284 128.623 10.808 128.514 12.7124" fill="#545554"/>
<path id="Vector_30" d="M96.3637 2.37057C96.3637 3.67904 95.3135 4.73781 94.0198 4.73781C92.726 4.73781 91.6758 3.67904 91.6758 2.37057C91.6758 1.06209 92.726 0 94.0198 0C95.3135 0 96.3637 1.06209 96.3637 2.37057Z" fill="#545554"/>
</g>
</svg>
