<svg width="109" height="23" viewBox="0 0 109 23" fill="none" xmlns="http://www.w3.org/2000/svg">
<g id="Group 294147">
<g id="Logo">
<path id="Vector" d="M6.48863 2.57614C5.00466 1.12045 2.59836 1.12045 1.11439 2.57614C-0.371463 4.02999 -0.371463 6.38927 1.11439 7.84311L3.80057 10.4766L6.48863 7.84311C7.9726 6.38927 7.9726 4.03183 6.48863 2.57614Z" fill="#FBDB00"/>
<path id="Vector_2" d="M11.8827 2.58062C10.3987 1.12677 7.99241 1.12677 6.50843 2.58062C5.02258 4.03446 5.02258 6.39374 6.50843 7.84759L9.19461 10.4811L11.8827 7.84759C13.3666 6.39374 13.3666 4.0363 11.8827 2.58062Z" fill="#7CC14B"/>
<path id="Vector_3" d="M9.18937 5.2232C7.7054 3.76935 5.2991 3.76935 3.81513 5.2232C2.33115 6.67704 2.33115 9.03448 3.81513 10.4883L6.50319 13.1218L9.19125 10.4883C10.6752 9.03448 10.6752 6.67704 9.19125 5.2232" fill="#19B3B5"/>
<path id="Vector_4" d="M102.039 22.335C102.039 22.624 101.799 22.8577 101.504 22.8577C101.209 22.8577 100.969 22.624 100.969 22.335C100.969 22.0461 101.209 21.8105 101.504 21.8105C101.799 21.8105 102.039 22.0443 102.039 22.335Z" fill="#19B3B5"/>
<path id="Vector_5" d="M103.198 22.335C103.198 22.624 102.96 22.8577 102.663 22.8577C102.366 22.8577 102.127 22.624 102.127 22.335C102.127 22.0461 102.368 21.8105 102.663 21.8105C102.958 21.8105 103.198 22.0443 103.198 22.335Z" fill="#19B3B5"/>
<path id="Vector_6" d="M92.0065 18.5947C91.9952 18.3904 91.9576 18.1954 91.8994 18.0113C91.8956 17.9985 91.8919 17.9856 91.8881 17.9727C91.8825 17.9543 91.8768 17.9359 91.8693 17.9193C91.8224 17.7923 91.7679 17.6709 91.7003 17.5531C91.4918 17.1942 91.2025 16.9145 90.8305 16.7139C90.4586 16.5133 90.036 16.4121 89.5645 16.4121C89.5607 16.4121 89.557 16.4121 89.5532 16.4121C89.5494 16.4121 89.5457 16.4121 89.5438 16.4121C89.0723 16.4121 88.6497 16.5133 88.2777 16.7139C87.9058 16.9145 87.6146 17.1942 87.408 17.5531C87.3404 17.6709 87.2859 17.7923 87.239 17.9193C87.2314 17.9377 87.2258 17.9561 87.2183 17.9727C87.2127 17.9856 87.2108 17.9985 87.207 18.0113C87.1507 18.1954 87.1131 18.3904 87.1018 18.5947C87.0981 18.6499 87.0962 18.7051 87.0962 18.7603V20.1038C87.0962 20.2657 87.145 20.3945 87.2408 20.4902C87.3366 20.5841 87.4719 20.6319 87.6466 20.6319H91.4598C91.6345 20.6319 91.7698 20.5841 91.8656 20.4902C91.9632 20.3945 92.0102 20.2676 92.0102 20.1038V18.7603C92.0102 18.7033 92.0083 18.6499 92.0046 18.5947M91.1104 19.5866H87.9903V18.9149C87.9903 18.4641 88.1199 18.1199 88.3829 17.877C88.3848 17.8752 88.3867 17.8715 88.3904 17.8696L88.3942 17.866C88.4073 17.8531 88.4205 17.8439 88.4355 17.8328C88.7004 17.6138 89.0704 17.5016 89.5476 17.5016H89.5551C90.0322 17.5016 90.4023 17.612 90.6671 17.8328C90.6803 17.8439 90.6953 17.8531 90.7084 17.866L90.7122 17.8696C90.7141 17.8715 90.716 17.8752 90.7178 17.877C90.9789 18.1199 91.1104 18.4659 91.1104 18.9149V19.5866Z" fill="#19B3B5"/>
<path id="Vector_7" d="M99.259 18.8945C99.2568 19.6307 99.259 20.3649 99.259 21.1011C99.259 21.1287 99.259 21.1563 99.259 21.1839V18.8945H99.2568H99.259Z" fill="#19B3B5"/>
<path id="Vector_8" d="M99.2937 21.3771C99.2712 21.32 99.2637 21.2538 99.2618 21.1875V21.331C99.2618 21.5703 99.2054 21.7506 99.0946 21.8684C98.9838 21.9862 98.8316 22.0451 98.6382 22.0451C98.5292 22.0451 98.4278 22.0248 98.3338 21.9825C98.238 21.942 98.1422 21.8795 98.0446 21.7966C97.9751 21.7304 97.9093 21.6844 97.8492 21.6549C97.7891 21.6237 97.7233 21.6089 97.6482 21.6089C97.5261 21.6089 97.419 21.6494 97.3251 21.7341C97.2331 21.8169 97.188 21.9255 97.188 22.0598C97.188 22.2254 97.2763 22.3819 97.4491 22.5236C97.5862 22.6303 97.7609 22.7186 97.9751 22.7904C98.1892 22.8622 98.3996 22.8971 98.6025 22.8971C99.1529 22.8971 99.5755 22.7499 99.8704 22.4573C100.021 22.3082 100.13 22.1297 100.203 21.9163C99.9249 21.9236 99.6356 21.8592 99.4891 21.723C99.3952 21.6347 99.3388 21.4985 99.29 21.3752" fill="#19B3B5"/>
<path id="Vector_9" d="M100.313 18.4927C100.313 18.4209 100.303 18.3565 100.286 18.3013C100.236 18.1614 100.13 18.0657 99.9744 18.0197C99.5856 17.9001 99.2606 18.132 99.2568 18.5424C99.2568 18.6602 99.2568 18.7779 99.2568 18.8939H99.2587V21.1814C99.2606 21.2476 99.2681 21.3139 99.2906 21.3728C99.3395 21.4961 99.3958 21.6304 99.4898 21.7187C99.6344 21.8549 99.9237 21.9193 100.204 21.912C100.275 21.7022 100.313 21.4611 100.313 21.1869V18.4908V18.4927Z" fill="#19B3B5"/>
<path id="Vector_10" d="M97.5157 18.4984C97.326 18.3733 97.0912 18.2721 96.8113 18.1911L95.9998 17.961C95.7086 17.8801 95.5001 17.7954 95.3762 17.7089C95.2503 17.6206 95.1902 17.4881 95.1902 17.3041C95.1902 17.1403 95.2541 17.0133 95.3855 16.9213C95.5095 16.8348 95.688 16.7888 95.9209 16.7851C95.9322 16.7851 95.9434 16.7832 95.9547 16.7832C96.1313 16.7832 96.3097 16.809 96.4901 16.8605C96.6685 16.9121 96.8752 16.9986 97.11 17.1219C97.2189 17.1826 97.3391 17.212 97.4687 17.212C97.6096 17.212 97.728 17.1624 97.8257 17.0593C97.9215 16.9581 97.9684 16.8348 97.9684 16.6931C97.9684 16.6876 97.9684 16.682 97.9665 16.6765C97.959 16.4391 97.79 16.2551 97.4537 16.1189C97.2358 16.0214 96.9879 15.9496 96.7117 15.8999C96.6873 15.8944 96.661 15.8925 96.6347 15.8889C96.3868 15.8502 96.1501 15.8281 95.9228 15.8281C95.3574 15.8281 94.8878 15.9588 94.514 16.2183C94.4012 16.2974 94.3092 16.3876 94.2303 16.4888C94.0481 16.7225 93.9561 17.017 93.9561 17.3721C93.9561 18.1267 94.4369 18.6438 95.4006 18.9254L96.0242 19.0928C96.3567 19.1849 96.5859 19.2769 96.7099 19.3689C96.8338 19.4609 96.8977 19.586 96.8977 19.7443C96.8977 19.7756 96.8958 19.8032 96.8921 19.829C96.8733 19.9872 96.8075 20.1068 96.6911 20.1915C96.5539 20.289 96.3511 20.3406 96.0862 20.3406C95.8026 20.3406 95.502 20.2688 95.1864 20.1234C95.0718 20.0719 94.9573 20.013 94.8389 19.9431C94.7938 19.9173 94.7563 19.8952 94.7206 19.875C94.6811 19.8455 94.6436 19.8142 94.6079 19.783C94.4576 19.6468 94.3111 19.4591 94.1627 19.218C94.1101 19.126 94.0594 19.056 94.0086 19.01C93.9579 18.9622 93.9016 18.9272 93.8396 18.9014C93.6893 18.8426 93.5447 18.8407 93.4038 18.8941C93.2648 18.9475 93.1633 19.0487 93.1032 19.1959C93.0337 19.3652 93.0581 19.5676 93.1821 19.8032C93.3305 20.0664 93.5447 20.3074 93.8189 20.5283C93.8978 20.5927 93.9805 20.6497 94.065 20.7068C94.112 20.751 94.1683 20.7896 94.2359 20.8209C94.2829 20.8467 94.3336 20.8706 94.3825 20.8945C94.5064 20.9589 94.6342 21.0196 94.7694 21.073C95.2804 21.2754 95.7838 21.3509 96.2834 21.3012C96.5765 21.2699 96.8526 21.1982 97.11 21.0841C97.1156 21.0804 97.1212 21.0785 97.1287 21.0767C97.1363 21.073 97.1438 21.0693 97.1513 21.0675C97.1532 21.0675 97.1551 21.0656 97.1569 21.0656C97.2922 21.0068 97.4124 20.935 97.5213 20.8559C97.6585 20.7528 97.7749 20.635 97.867 20.497C98.0379 20.2449 98.1243 19.9504 98.1243 19.6155C98.1243 19.137 97.9215 18.7653 97.5176 18.4984" fill="#19B3B5"/>
<path id="Vector_11" d="M106.411 21.5267C106.024 21.5267 105.678 21.4494 105.374 21.2948C105.07 21.1402 104.831 20.9194 104.66 20.6359C104.487 20.3525 104.401 20.025 104.401 19.6551C104.401 19.2852 104.485 18.9447 104.653 18.6576C104.82 18.3705 105.055 18.1497 105.357 17.9914C105.658 17.835 106.007 17.7559 106.403 17.7559C106.8 17.7559 107.134 17.835 107.438 17.9914C107.743 18.1497 107.981 18.3705 108.152 18.6576C108.325 18.9447 108.411 19.276 108.411 19.6551C108.411 20.0342 108.325 20.3507 108.152 20.6359C107.981 20.9194 107.745 21.1402 107.442 21.2948C107.14 21.4494 106.796 21.5267 106.411 21.5267ZM106.396 20.6875C106.689 20.6875 106.929 20.5918 107.121 20.4004C107.312 20.209 107.406 19.9587 107.406 19.6477C107.406 19.3367 107.314 19.079 107.13 18.8858C106.946 18.6926 106.711 18.595 106.422 18.595C106.133 18.595 105.881 18.6907 105.69 18.8821C105.498 19.0735 105.404 19.3275 105.404 19.6422C105.404 19.9569 105.496 20.2035 105.684 20.3967C105.87 20.5899 106.108 20.6875 106.394 20.6875" fill="#19B3B5"/>
<path id="Vector_12" d="M83.5811 19.5995C83.5811 19.5995 83.5642 19.5977 83.5566 19.5977V20.6264C83.6092 20.6301 83.6656 20.6319 83.7219 20.6319H87.7775V19.5995H83.5792H83.5811Z" fill="#19B3B5"/>
<path id="Vector_13" d="M102.121 19.6035C102.121 19.6035 102.104 19.6035 102.096 19.6035V20.6322C102.149 20.6359 102.205 20.6378 102.263 20.6378H104.88V19.6035H102.121Z" fill="#19B3B5"/>
<path id="Vector_14" d="M102.887 18.1095C102.799 18.0267 102.69 17.9844 102.558 17.9844C102.427 17.9844 102.316 18.0249 102.226 18.1095C102.136 18.1923 102.09 18.3083 102.09 18.4555V19.6057H99.5151V20.6399H102.5C102.671 20.6399 102.799 20.5958 102.887 20.5093C102.973 20.4209 103.017 20.2976 103.017 20.1357V18.4573C103.017 18.3083 102.973 18.1942 102.887 18.1114" fill="#19B3B5"/>
<path id="Vector_15" d="M73.3794 18.9443C73.3794 18.7474 73.4151 18.5413 73.4883 18.3315C73.5616 18.1217 73.6518 17.9487 73.7607 17.8144C73.9054 17.6432 74.065 17.5586 74.236 17.5586C74.3712 17.5586 74.482 17.6046 74.5684 17.6948C74.653 17.785 74.6962 17.8898 74.6962 18.0095C74.6962 18.0831 74.6793 18.1493 74.6492 18.2064C74.6173 18.2653 74.5703 18.3278 74.5046 18.3959C74.4201 18.4935 74.3562 18.5892 74.313 18.6793C74.2717 18.7714 74.2491 18.8726 74.2491 18.9775C74.2491 19.1689 74.3111 19.3161 74.4294 19.4247C74.5497 19.5332 74.7319 19.5885 74.978 19.5885H79.475V18.4383C79.475 18.291 79.52 18.1751 79.6102 18.0923C79.7004 18.0095 79.8093 17.9671 79.9427 17.9671C80.0761 17.9671 80.1831 18.0076 80.2714 18.0923C80.3597 18.1751 80.4029 18.291 80.4029 18.4383V20.1148C80.4029 20.2767 80.3578 20.4019 80.2714 20.4902C80.185 20.5785 80.0554 20.6227 79.8863 20.6227H75.1207C74.5591 20.6227 74.1289 20.4773 73.8302 20.1902C73.5297 19.9013 73.3813 19.4854 73.3813 18.9443" fill="#19B3B5"/>
<path id="Vector_16" d="M85.6994 17.4989C85.5492 17.1916 85.3275 16.9523 85.0382 16.783C84.7489 16.6119 84.4033 16.5254 84.0032 16.5254H83.0396C83.4397 16.5254 83.7853 16.6119 84.0746 16.783C84.3639 16.9523 84.5855 17.1934 84.7358 17.4989C84.826 17.6829 84.8879 17.8872 84.9255 18.1062C84.9819 18.2424 85.0138 18.3951 85.0138 18.57C85.0138 18.7448 84.9875 18.892 84.933 19.0245C84.871 19.4625 84.7151 19.8177 84.4615 20.0864C84.1272 20.4416 83.6519 20.6201 83.0396 20.6201H84.0032C84.6174 20.6201 85.0908 20.4416 85.4252 20.0864C85.7595 19.7312 85.9267 19.227 85.9267 18.5755C85.9267 18.1651 85.8497 17.8044 85.6994 17.4971" fill="#19B3B5"/>
<path id="Vector_17" d="M84.9303 19.0233C84.889 19.1282 84.8289 19.2239 84.7538 19.3049C84.5809 19.4926 84.3142 19.5865 83.9498 19.5865H78.7502C78.4534 19.5865 78.2374 19.6601 78.1059 19.8073C77.9744 19.9545 77.9087 20.1735 77.9087 20.4588C77.9087 20.514 77.9124 20.5673 77.9162 20.617H83.035C83.6492 20.617 84.1226 20.4385 84.457 20.0833C84.7106 19.8147 84.8683 19.4595 84.9303 19.0215" fill="#19B3B5"/>
<path id="Vector_18" d="M84.7496 17.8411C84.8228 17.9184 84.881 18.0086 84.9224 18.1061C84.8867 17.8853 84.8228 17.6828 84.7326 17.497C84.5824 17.1896 84.3607 16.9504 84.0714 16.7792C83.7821 16.6081 83.4365 16.5234 83.0364 16.5234H81.4191C81.2575 16.5234 81.1354 16.5694 81.0546 16.6615C80.972 16.7535 80.9307 16.8805 80.9307 17.0424C80.9307 17.2044 80.972 17.3313 81.0546 17.4234C81.1373 17.5154 81.2575 17.5632 81.4191 17.5632H83.9512C84.31 17.5632 84.5749 17.6552 84.7496 17.8393" fill="#19B3B5"/>
<path id="Vector_19" d="M77.3144 17.0499C77.3144 17.3406 77.0759 17.5744 76.7791 17.5744C76.4823 17.5744 76.2456 17.3406 76.2456 17.0499C76.2456 16.7591 76.4842 16.5254 76.7791 16.5254C77.074 16.5254 77.3144 16.761 77.3144 17.0499Z" fill="#19B3B5"/>
<path id="Vector_20" d="M78.4731 17.0499C78.4731 17.3406 78.2346 17.5744 77.9378 17.5744C77.641 17.5744 77.4043 17.3406 77.4043 17.0499C77.4043 16.7591 77.6429 16.5254 77.9378 16.5254C78.2327 16.5254 78.4731 16.761 78.4731 17.0499Z" fill="#19B3B5"/>
<path id="Vector_21" d="M21.3521 4.95901C21.2826 5.86629 21.2112 6.7754 21.1436 7.68451C21.0384 9.10707 20.9426 10.5296 20.8318 11.954C20.7773 12.6828 20.3377 13.1024 19.6465 13.1061C18.8763 13.1116 18.4161 12.6883 18.4555 11.9264C18.5119 10.8186 18.6189 9.71254 18.7035 8.60651C18.7692 7.76733 18.8331 6.92814 18.8988 6.08896C18.9646 5.2645 19.0322 4.44004 19.1017 3.5751C18.9157 3.56038 18.7467 3.55117 18.5795 3.53461C18.1512 3.49044 17.8507 3.23096 17.7718 2.8445C17.676 2.38074 17.8112 1.99795 18.2019 1.81024C18.4762 1.67774 18.7824 1.59492 19.0829 1.54155C19.376 1.49187 19.6784 1.49187 19.9771 1.49555C22.0171 1.51947 22.8455 2.02556 23.5499 3.9358C24.1585 5.58472 24.8404 7.20419 25.526 8.92856C25.6068 8.73901 25.6612 8.62491 25.7063 8.51081C26.4483 6.61161 27.1828 4.71057 27.9342 2.81321C28.3512 1.76055 29.1833 1.32992 30.316 1.5526C31.12 1.71086 31.5971 2.20959 31.6742 3.03589C31.8338 4.76026 31.9728 6.48647 32.1194 8.21268C32.2114 9.30583 32.294 10.4008 32.3955 11.494C32.4725 12.335 32.1701 12.8852 31.5089 13.0619C30.6692 13.2864 29.9723 12.8871 29.8652 12.0497C29.7525 11.1553 29.7187 10.2517 29.6567 9.35183C29.5534 7.88327 29.4576 6.41286 29.2867 4.92405C29.2378 5.03815 29.1852 5.15409 29.1401 5.27003C28.3944 7.20787 27.658 9.14756 26.9029 11.0817C26.5516 11.9835 25.6612 12.3736 24.7915 12.0405C24.29 11.8491 24.0101 11.4664 23.8241 10.9916C23.0821 9.10523 22.3308 7.22259 21.5813 5.33812C21.5305 5.20745 21.4704 5.07863 21.4141 4.94797C21.3934 4.95165 21.3728 4.95533 21.3502 4.95901" fill="#545554"/>
<path id="Vector_22" d="M68.2716 2.19694C68.6717 2.38833 69.0305 2.63861 69.1206 3.10605C69.2897 3.99492 68.4989 4.64087 67.601 4.33906C67.2854 4.23232 66.9905 4.06485 66.6843 3.93051C65.8972 3.58269 65.0838 3.40234 64.216 3.57717C63.6393 3.69311 63.2956 4.01149 63.2317 4.48813C63.1641 4.99605 63.3876 5.44509 63.9361 5.65488C64.6631 5.93277 65.422 6.12784 66.1658 6.36524C66.6373 6.51615 67.1182 6.65233 67.5747 6.84188C68.7243 7.31852 69.4343 8.14114 69.4775 9.40176C69.5226 10.6973 69.006 11.739 67.8489 12.407C66.5885 13.1339 65.2097 13.213 63.799 12.994C62.8842 12.8542 61.9994 12.5855 61.2105 12.1089C60.925 11.9359 60.6714 11.6396 60.523 11.3414C60.3239 10.9384 60.4554 10.5225 60.7897 10.206C61.126 9.88576 61.5373 9.81951 61.9656 9.98882C62.2399 10.0974 62.4935 10.2593 62.7565 10.3992C63.6562 10.8832 64.603 11.22 65.6455 11.036C65.9705 10.9789 66.3293 10.8335 66.5659 10.6164C67.1238 10.0974 66.9529 9.19748 66.2222 8.88463C65.5441 8.59202 64.8096 8.43007 64.1089 8.18715C63.489 7.97184 62.8485 7.78596 62.2774 7.48047C61.0395 6.8198 60.476 5.75794 60.6225 4.37955C60.7672 3.01404 61.5937 2.15277 62.8955 1.76815C63.5999 1.56019 65.221 1.03202 68.2772 2.1951" fill="#545554"/>
<path id="Vector_23" d="M81.5351 2.76381C81.3735 2.76381 81.2627 2.76933 81.1519 2.76381C80.6766 2.73805 80.3798 2.49329 80.2822 2.05529C80.1901 1.64122 80.3611 1.20691 80.7593 1.03944C81.6177 0.676901 82.4856 0.689783 83.3046 1.15722C83.7348 1.40198 83.9095 1.83078 83.9151 2.30742C83.9301 3.29566 83.9264 4.28391 83.9301 5.27216V5.66414C84.2664 5.38258 84.5369 5.11573 84.8468 4.90226C85.8104 4.23974 86.883 4.07412 88.012 4.35568C89.1766 4.64645 89.928 5.5482 89.9656 6.74257C90.005 8.03446 89.9844 9.33004 89.9881 10.6219V11.1004C90.1628 11.1004 90.3056 11.1059 90.4502 11.1004C90.8372 11.082 91.1321 11.2219 91.2993 11.5734C91.4571 11.9102 91.3669 12.3537 91.0983 12.6279C90.4371 13.3033 88.4741 13.1873 87.9237 12.4218C87.7809 12.223 87.7096 11.9598 87.6532 11.7169C87.6062 11.5182 87.6194 11.3047 87.6194 11.0967C87.6156 10.0606 87.6213 9.02271 87.6175 7.98478C87.61 6.62111 86.776 5.977 85.4404 6.3745C84.9557 6.51805 84.5199 6.83826 84.0898 7.11799C83.9827 7.18608 83.9376 7.41244 83.9376 7.56519C83.9264 9.01719 83.9395 10.4692 83.9264 11.9212C83.9188 12.8064 83.1581 13.3125 82.3034 13.0254C81.9221 12.8984 81.6685 12.6426 81.5896 12.2525C81.552 12.0629 81.5388 11.8642 81.5388 11.6709C81.5351 8.86445 81.537 6.05797 81.537 3.2515V2.76565L81.5351 2.76381Z" fill="#545554"/>
<path id="Vector_24" d="M100.437 11.101H100.923C101.314 11.101 101.588 11.2887 101.748 11.6273C101.9 11.9585 101.808 12.3892 101.523 12.6339C101.385 12.7517 101.22 12.8621 101.047 12.9155C100.324 13.1437 99.5841 13.1474 98.9041 12.8161C98.581 12.6597 98.3424 12.3395 98.0287 12.0616C98.0343 12.0561 97.9592 12.1113 97.8859 12.1665C96.648 13.0848 95.2786 13.3461 93.8003 12.8732C92.7653 12.5419 92.1736 11.7285 92.1191 10.6814C92.0665 9.62687 92.5511 8.84658 93.5655 8.38282C94.5949 7.90802 95.6863 7.89882 96.7852 8.01108C97.1947 8.05157 97.5948 8.13254 98.07 8.20615C98.0475 7.80129 98.0719 7.4093 97.993 7.03756C97.8728 6.4597 97.3675 6.06587 96.6499 6.099C96.0169 6.13028 95.3876 6.30879 94.7658 6.46154C94.469 6.53699 94.2004 6.70998 93.913 6.82776C93.3645 7.05412 92.8573 6.90873 92.6169 6.46522C92.3464 5.96465 92.4553 5.32791 92.97 5.09235C93.6388 4.78502 94.3507 4.54025 95.0701 4.37647C96.0469 4.15563 97.0481 4.15931 98.0343 4.38199C99.5333 4.72244 100.392 5.74014 100.424 7.24735C100.448 8.38282 100.431 9.51646 100.433 10.6519V11.101M96.3343 9.38763C95.9474 9.4318 95.6093 9.44468 95.2862 9.51462C94.7001 9.64344 94.4258 9.97469 94.4427 10.4624C94.4615 10.9372 94.7921 11.2519 95.3669 11.3439C96.0657 11.4561 96.7269 11.3218 97.3581 11.0347C98.0757 10.709 98.0719 10.6961 98.0569 9.91396C98.0531 9.71705 97.9892 9.62319 97.7958 9.59743C97.2942 9.52934 96.7927 9.45389 96.3343 9.38947" fill="#545554"/>
<path id="Vector_25" d="M36.4947 9.35543C36.5661 10.2517 37.1672 10.905 38.112 11.1092C39.0475 11.3117 39.9398 11.2141 40.7663 10.6989C41.0161 10.5424 41.281 10.3952 41.559 10.2995C41.9629 10.1578 42.4005 10.3087 42.6278 10.616C42.8702 10.9473 42.8739 11.3982 42.6109 11.7423C42.502 11.8877 42.3686 12.0276 42.2146 12.1214C40.3361 13.2661 38.3562 13.4648 36.3501 12.5392C34.6745 11.7644 33.8292 9.94985 34.1185 8.01936C34.6294 4.5835 38.715 2.96403 41.512 5.10063C42.5583 5.89932 43.0016 6.99615 42.9584 8.27885C42.9359 8.93032 42.425 9.3407 41.6473 9.34991C40.6273 9.36279 39.6054 9.35359 38.5854 9.35359H36.4985M36.4853 7.81325H40.5522C40.5315 6.71826 39.8196 6.06863 38.7113 6.04839C37.449 6.02814 36.5473 6.76059 36.4853 7.81325Z" fill="#545554"/>
<path id="Vector_26" d="M102.902 6.14478C102.619 6.14478 102.395 6.15398 102.171 6.14478C101.657 6.12269 101.305 5.75647 101.294 5.2375C101.283 4.73326 101.638 4.34495 102.155 4.31735C102.412 4.30262 102.671 4.31551 102.972 4.31551C102.972 3.8223 102.968 3.36223 102.972 2.90215C102.977 2.19179 103.419 1.75379 104.129 1.75195C104.816 1.75195 105.248 2.17338 105.269 2.8819C105.282 3.33278 105.28 3.78366 105.286 4.23453C105.286 4.24373 105.295 4.25478 105.323 4.31183C105.943 4.31183 106.586 4.29894 107.228 4.31551C107.955 4.33023 108.365 4.9909 108.062 5.63501C107.899 5.97915 107.613 6.14478 107.228 6.14662C106.595 6.14846 105.962 6.14662 105.305 6.14662C105.293 6.2644 105.273 6.35641 105.271 6.45027C105.269 7.69432 105.265 8.93837 105.271 10.1806C105.275 10.9443 105.645 11.2461 106.415 11.0971C106.655 11.051 106.89 10.9572 107.123 10.8762C107.606 10.7124 108.021 10.8173 108.25 11.1633C108.511 11.5571 108.449 12.1092 108.085 12.435C107.94 12.5638 107.765 12.6742 107.583 12.7441C106.672 13.0956 105.731 13.2061 104.767 12.9852C103.607 12.7202 102.93 11.8737 102.906 10.6075C102.881 9.26594 102.898 7.92436 102.897 6.58277V6.14294" fill="#545554"/>
<path id="Vector_27" d="M45.0432 6.26907H44.6844C44.1942 6.26355 43.8936 6.05007 43.7696 5.6176C43.6419 5.16672 43.7959 4.73057 44.2205 4.52814C44.9418 4.18584 45.6894 4.17112 46.4107 4.5263C46.8278 4.73241 47.0419 5.10231 47.0776 5.56055C47.0964 5.77587 47.1001 5.99118 47.1152 6.29668C47.3349 5.98014 47.4965 5.72986 47.6787 5.49614C48.1295 4.91644 48.6235 4.38827 49.4256 4.2889C50.0023 4.21896 50.4156 4.4122 50.6034 4.84467C50.8082 5.31579 50.6692 5.8734 50.2428 6.19178C50.0662 6.32428 49.8633 6.42366 49.6605 6.51015C49.0687 6.76227 48.477 7.02176 47.8703 7.23707C47.5416 7.35485 47.4251 7.51312 47.4307 7.86462C47.4552 9.19517 47.4495 10.5239 47.4382 11.8526C47.4289 12.7985 46.6981 13.3156 45.7984 13.0285C45.3043 12.8721 45.0489 12.5004 45.047 11.8949C45.0413 10.1632 45.0451 8.43144 45.0451 6.6997V6.26907H45.0432Z" fill="#545554"/>
<path id="Vector_28" d="M52.5827 6.27271C52.3874 6.26167 52.2277 6.25615 52.068 6.24511C51.6491 6.21198 51.373 6.00403 51.2697 5.64332C51.157 5.24766 51.2791 4.85935 51.5946 4.62747C52.2427 4.14899 53.8695 4.18028 54.4518 4.72501C54.6622 4.92376 54.788 5.22741 54.8988 5.50162C54.974 5.68565 54.974 5.90833 54.974 6.11444C54.9796 8.02653 54.9834 9.94229 54.974 11.8562C54.9683 12.7764 54.2376 13.3009 53.3641 13.0322C52.8551 12.8757 52.5865 12.5095 52.5846 11.9188C52.5771 10.5919 52.5808 9.26138 52.5808 7.93267V6.27087" fill="#545554"/>
<path id="Vector_29" d="M73.3481 9.35543C73.4195 10.2517 74.0206 10.905 74.9673 11.1092C75.9028 11.3117 76.7932 11.2141 77.6197 10.6989C77.8695 10.5424 78.1344 10.3952 78.4124 10.2995C78.8162 10.1578 79.2558 10.3087 79.4812 10.616C79.7235 10.9473 79.7273 11.3982 79.4643 11.7423C79.3554 11.8877 79.2201 12.0276 79.0661 12.1214C77.1876 13.2661 75.2096 13.4648 73.2016 12.5392C71.526 11.7644 70.6826 9.94985 70.97 8.01936C71.4809 4.5835 75.5665 2.96403 78.3635 5.10063C79.4117 5.89932 79.8531 6.99615 79.8099 8.27885C79.7893 8.93032 79.2765 9.3407 78.4988 9.34991C77.4788 9.36279 76.4569 9.35359 75.4369 9.35359H73.3481M73.3349 7.81325H77.4018C77.3811 6.71826 76.6692 6.06863 75.5609 6.04839C74.2967 6.02814 73.395 6.76059 73.333 7.81325" fill="#545554"/>
<path id="Vector_30" d="M54.9825 2.09546C54.9825 2.8187 54.3833 3.40392 53.6451 3.40392C52.9068 3.40392 52.3076 2.8187 52.3076 2.09546C52.3076 1.37222 52.9068 0.785156 53.6451 0.785156C54.3833 0.785156 54.9825 1.37222 54.9825 2.09546Z" fill="#545554"/>
</g>
</g>
</svg>
